<svg width="80" height="44" viewBox="0 0 80 44" fill="none" xmlns="http://www.w3.org/2000/svg">
<path fill-rule="evenodd" clip-rule="evenodd" d="M33.652 43.4643H24.9333V43.4446C24.3594 43.4047 23.7765 43.3025 23.2119 43.1373C22.012 42.7861 20.8951 42.1513 19.976 41.3019C19.3475 40.7209 18.8097 40.0399 18.3913 39.2925C17.9013 38.4174 17.5755 37.4499 17.4365 36.4565C17.3838 36.0799 17.3577 35.701 17.3575 35.3182V22.1201H41.2273C41.2273 26.5216 41.2287 30.9231 41.2273 35.3247C41.2273 35.7378 41.1967 36.1428 41.136 36.5451C40.9807 37.5733 40.6247 38.5715 40.0927 39.4683C39.65 40.2147 39.0867 40.8901 38.432 41.4609C37.7267 42.0759 36.9167 42.5683 36.0413 42.9098C35.324 43.1897 34.5673 43.3659 33.8 43.433C33.7527 43.4371 33.7053 43.4408 33.658 43.4441L33.652 43.4446V43.4643ZM59.7867 29.0027C59.7867 32.6877 59.79 36.3728 59.7867 40.0579C59.7867 40.2989 59.7453 40.5381 59.6667 40.7645C59.5993 40.9594 59.5053 41.1451 59.39 41.3173C59.2587 41.5136 59.1013 41.6922 58.9267 41.8515C58.7 42.0581 58.444 42.2322 58.1727 42.3755C57.8287 42.5569 57.4593 42.6889 57.0793 42.775C56.736 42.8527 56.3853 42.8927 56.0333 42.8973C55.806 42.9003 55.578 42.8884 55.3513 42.8611C55.0733 42.8277 54.798 42.771 54.53 42.69C54.3093 42.6232 54.0927 42.5399 53.8853 42.4393C53.63 42.3156 53.3867 42.1661 53.1647 41.9881C52.9947 41.8515 52.8373 41.6991 52.7 41.5307C52.5753 41.3784 52.466 41.2131 52.3787 41.0365C52.2893 40.8558 52.2227 40.6629 52.184 40.465C52.1413 40.2449 52.1333 40.0177 52.1607 39.7943C52.1847 39.6002 52.2353 39.4093 52.3093 39.2285C52.402 39.0016 52.5307 38.7901 52.6847 38.5987C52.8187 38.4326 52.9707 38.2817 53.136 38.1465C53.3747 37.9507 53.6387 37.7885 53.9167 37.6568C54.206 37.5195 54.5113 37.4154 54.8247 37.3425C54.9907 37.3039 55.1587 37.2741 55.328 37.2529C55.5413 37.2261 55.756 37.2131 55.9713 37.2134C56.164 37.2136 56.3567 37.2244 56.548 37.2462C56.7793 37.2726 57.0087 37.3149 57.2347 37.3741C57.2433 37.3763 57.252 37.3786 57.2607 37.3809V22.6867H59.7867V26.7921H67.366V22.6867H69.8927V26.7921H77.4713V22.6867H79.998C79.998 28.4771 80.0027 34.2675 79.998 40.0579C79.9973 40.2989 79.956 40.5381 79.878 40.7645C79.8107 40.9594 79.716 41.1451 79.6013 41.3173C79.47 41.5136 79.3127 41.6922 79.138 41.8515C78.9107 42.0581 78.6553 42.2322 78.3833 42.3755C78.04 42.5569 77.6707 42.6889 77.29 42.775C76.9473 42.8527 76.596 42.8927 76.2447 42.8973C76.0173 42.9003 75.7887 42.8884 75.5627 42.8611C75.2847 42.8277 75.0093 42.771 74.7413 42.69C74.52 42.6232 74.304 42.5399 74.096 42.4393C73.8407 42.3156 73.598 42.1661 73.376 41.9881C73.2053 41.8515 73.0487 41.6991 72.9107 41.5307C72.786 41.3784 72.6773 41.2131 72.59 41.0365C72.5 40.8558 72.4333 40.6629 72.3953 40.465C72.3527 40.2449 72.344 40.0177 72.3713 39.7943C72.3953 39.6002 72.446 39.4093 72.52 39.2285C72.6127 39.0016 72.742 38.7901 72.896 38.5987C73.0293 38.4326 73.182 38.2817 73.3467 38.1465C73.586 37.9507 73.8493 37.7885 74.1273 37.6568C74.4173 37.5195 74.7227 37.4154 75.0353 37.3425C75.2013 37.3039 75.37 37.2741 75.5393 37.2529C75.752 37.2261 75.9673 37.2131 76.182 37.2134C76.3747 37.2136 76.5673 37.2244 76.7587 37.2462C76.9907 37.2726 77.22 37.3149 77.4453 37.3741C77.454 37.3763 77.4627 37.3786 77.4713 37.3809V29.0027H69.8927C69.8927 32.6877 69.8953 36.3728 69.8927 40.0579C69.892 40.2989 69.8507 40.5381 69.7727 40.7645C69.7053 40.9594 69.6107 41.1451 69.4953 41.3173C69.3647 41.5136 69.2073 41.6922 69.032 41.8515C68.8053 42.0581 68.55 42.2322 68.278 42.3755C67.934 42.5569 67.5647 42.6889 67.1847 42.775C66.842 42.8527 66.4907 42.8927 66.1393 42.8973C65.9113 42.9003 65.6833 42.8884 65.4573 42.8611C65.1793 42.8277 64.904 42.771 64.6353 42.69C64.4147 42.6232 64.1987 42.5399 63.9907 42.4393C63.7353 42.3156 63.4927 42.1661 63.2707 41.9881C63.1 41.8515 62.9427 41.6991 62.8053 41.5307C62.6807 41.3784 62.5713 41.2131 62.484 41.0365C62.3947 40.8558 62.328 40.6629 62.2893 40.465C62.2467 40.2449 62.2387 40.0177 62.266 39.7943C62.29 39.6002 62.3407 39.4093 62.4147 39.2285C62.5073 39.0016 62.636 38.7901 62.79 38.5987C62.924 38.4326 63.0767 38.2817 63.2413 38.1465C63.48 37.9507 63.744 37.7885 64.022 37.6568C64.312 37.5195 64.6173 37.4154 64.93 37.3425C65.096 37.3039 65.264 37.2741 65.4333 37.2529C65.6467 37.2261 65.862 37.2131 66.0767 37.2134C66.2693 37.2136 66.462 37.2244 66.6533 37.2462C66.8853 37.2726 67.1147 37.3149 67.34 37.3741C67.3487 37.3763 67.3573 37.3786 67.366 37.3809V29.0027H59.7867ZM29.5767 22.6884V32.7921C31.5887 32.7921 33.6 32.7905 35.6113 32.7921C36.0073 32.7931 36.402 32.8871 36.754 33.0667C37.306 33.3483 37.7473 33.8364 37.9693 34.4207C38.072 34.6905 38.1267 34.9767 38.1327 35.2651C38.1333 35.2814 38.1333 35.2977 38.1333 35.314C38.1333 35.3298 38.1333 35.3599 38.1327 35.3873C38.1227 36.1675 37.93 36.9392 37.576 37.6275C37.1753 38.4049 36.5713 39.074 35.838 39.5522C35.2227 39.9537 34.52 40.2175 33.7947 40.32C33.5587 40.3533 33.3213 40.3699 33.082 40.37H29.5767V42.8959C30.748 42.8959 31.9187 42.8967 33.0893 42.8959C34.1073 42.8945 35.1153 42.6905 36.0487 42.2931C37.1427 41.8269 38.122 41.1003 38.8893 40.1857C39.64 39.291 40.1807 38.2219 40.452 37.0864C40.5907 36.5069 40.6593 35.9083 40.6593 35.3181V22.6884H29.5767ZM29.0087 27.5856V22.6884H17.9259V30.2662C17.9259 31.1082 17.9259 31.9502 17.9259 32.7921C17.9259 33.6362 17.9255 34.4802 17.9259 35.3242C17.9269 36.1542 18.0607 36.9683 18.3221 37.7427C18.5808 38.5095 18.9649 39.2341 19.4514 39.8787C20.2511 40.9384 21.3335 41.785 22.5581 42.3021C23.3662 42.6433 24.2307 42.8404 25.1058 42.8857C25.2377 42.8925 25.3697 42.8958 25.5017 42.8959H29.0087V40.37C27.8373 40.37 26.6663 40.3715 25.4953 40.37C24.6533 40.3683 23.8341 40.159 23.1064 39.766C22.2043 39.2788 21.4601 38.5145 20.9972 37.6037C20.6567 36.9336 20.4697 36.1845 20.4531 35.4321C20.4524 35.4022 20.452 35.3724 20.4519 35.3426V35.3385L20.4518 35.3345V35.3181V32.7921H29.0087V27.5856ZM59.2187 23.2551H57.8287V38.0195L57.73 38.0953C57.5233 38.0398 57.316 37.9843 57.1093 37.9289C56.92 37.8783 56.7307 37.8419 56.538 37.8175C56.2267 37.7782 55.9113 37.7714 55.5993 37.7963C55.2373 37.8252 54.8773 37.8976 54.534 38.0175C54.3453 38.0833 54.1627 38.1629 53.986 38.2587C53.892 38.3101 53.7993 38.366 53.71 38.4267C53.5353 38.5455 53.3707 38.6829 53.226 38.8406C53.1747 38.8964 53.126 38.9551 53.0813 39.0143C53.0293 39.0835 52.9827 39.1549 52.94 39.23C52.9007 39.2985 52.866 39.3695 52.8367 39.4397C52.8127 39.499 52.7913 39.5593 52.774 39.6204C52.76 39.6712 52.7473 39.723 52.738 39.775C52.7227 39.8629 52.714 39.9533 52.7133 40.0437C52.7127 40.1011 52.7153 40.1605 52.7213 40.2135C52.7287 40.2897 52.742 40.3646 52.76 40.4386C52.7727 40.4878 52.7873 40.5372 52.804 40.5853C52.83 40.6596 52.862 40.7329 52.8973 40.8021C52.93 40.8673 52.9673 40.9302 53.0073 40.9917C53.0627 41.0749 53.124 41.1551 53.19 41.2303C53.204 41.2458 53.2173 41.2611 53.2313 41.2763L53.2327 41.2777C53.3173 41.3687 53.408 41.4531 53.504 41.5315C53.654 41.6535 53.8167 41.7601 53.986 41.8523C54.2793 42.0118 54.5947 42.1283 54.9187 42.2067C55.2093 42.277 55.5073 42.3163 55.8073 42.3266C56.236 42.3413 56.6673 42.2971 57.0813 42.1896C57.4207 42.1015 57.7493 41.9707 58.0507 41.7925C58.2593 41.6694 58.454 41.5239 58.6267 41.3525C58.726 41.2535 58.8173 41.1466 58.898 41.0302C58.986 40.9027 59.0613 40.7628 59.116 40.6169C59.1813 40.4411 59.2173 40.2547 59.2187 40.0657C59.2187 40.0623 59.2187 40.0589 59.2187 40.0555V28.4342H67.9347V38.0195L67.836 38.0953L67.2167 37.9294C67.1573 37.9136 67.0987 37.8992 67.0393 37.8861C66.796 37.8321 66.5473 37.7997 66.2993 37.7874C65.988 37.7721 65.676 37.7879 65.3693 37.8359C65.1573 37.8691 64.948 37.9177 64.7433 37.9828C64.4753 38.068 64.2167 38.1811 63.9747 38.3253C63.778 38.4425 63.594 38.5797 63.43 38.7391C63.2693 38.8957 63.128 39.0741 63.022 39.2717C62.9387 39.4275 62.8767 39.5955 62.8447 39.7692C62.8193 39.9082 62.812 40.0503 62.8247 40.1905C62.842 40.3999 62.9033 40.6053 62.9993 40.7959C63.1253 41.0453 63.3067 41.2653 63.516 41.4516C63.7213 41.6345 63.9553 41.787 64.2033 41.9103C64.3293 41.9731 64.4587 42.0284 64.5913 42.0765C64.8 42.1524 65.0153 42.2105 65.234 42.2518C65.486 42.2995 65.7433 42.3248 66 42.3287C66.2307 42.3323 66.4613 42.3188 66.6907 42.2874C66.894 42.2595 67.0953 42.2175 67.2927 42.1606C67.5173 42.0957 67.736 42.0121 67.9433 41.9083C68.176 41.7921 68.3967 41.6502 68.5947 41.4798C68.7207 41.3712 68.8373 41.2505 68.9387 41.1191C69.0173 41.017 69.0867 40.9087 69.1447 40.7928C69.216 40.6506 69.2687 40.4983 69.298 40.3419C69.3147 40.2512 69.3233 40.1592 69.324 40.0665C69.324 40.0629 69.324 40.0591 69.324 40.0555V28.4342H78.04V38.0195L77.9413 38.0953L77.322 37.9294C77.1927 37.8949 77.0613 37.8663 76.9293 37.8441C76.5867 37.7863 76.2373 37.7691 75.8907 37.7906C75.6107 37.808 75.3327 37.8511 75.0613 37.9215C74.8333 37.9807 74.6107 38.059 74.396 38.1586C74.1867 38.256 73.986 38.373 73.7993 38.5137C73.6207 38.6483 73.4567 38.8035 73.3187 38.9802C73.22 39.1063 73.1353 39.2431 73.0693 39.3901C72.9933 39.56 72.944 39.7425 72.9293 39.9281C72.9193 40.0515 72.924 40.1766 72.9427 40.2976C72.958 40.3937 72.9813 40.4882 73.0133 40.5802C73.0453 40.6721 73.0853 40.7611 73.1307 40.8448C73.1727 40.9229 73.2207 40.9977 73.2727 41.0693C73.3553 41.1835 73.4493 41.2895 73.5513 41.3873C73.6493 41.481 73.7553 41.5673 73.866 41.6463C74.1007 41.8131 74.3573 41.9461 74.6247 42.0495C74.8693 42.1441 75.1233 42.2133 75.38 42.2593C75.726 42.3213 76.0813 42.3417 76.4333 42.3222C76.75 42.3046 77.066 42.2541 77.372 42.1681C77.4907 42.1347 77.608 42.0959 77.722 42.052C77.8407 42.0064 77.9573 41.9551 78.0693 41.8979C78.1253 41.8696 78.1807 41.8399 78.2347 41.8083C78.3587 41.7365 78.4787 41.6565 78.5913 41.5692C78.7013 41.4835 78.8047 41.39 78.9007 41.2877C78.944 41.241 78.986 41.1928 79.0253 41.1427C79.066 41.0917 79.104 41.0397 79.14 40.9842C79.168 40.9414 79.1947 40.8975 79.22 40.8501C79.264 40.7699 79.302 40.6864 79.3333 40.5995C79.346 40.5643 79.3573 40.5287 79.368 40.4923C79.3873 40.4247 79.4027 40.3554 79.4127 40.2861C79.422 40.2221 79.4273 40.1577 79.4287 40.0944C79.4293 40.0823 79.4293 40.0703 79.4293 40.058V40.0572V23.2551H78.04V27.3605H69.324V23.2551H67.9347V27.3605H59.2187V23.2551ZM21.0201 33.3605V35.3177C21.0211 35.9623 21.1599 36.6083 21.4299 37.1936C21.794 37.9829 22.3913 38.6609 23.1313 39.1234C23.8383 39.5652 24.6727 39.8007 25.4998 39.8017H25.5035H29.5767V39.8017C30.7473 39.802 31.918 39.8031 33.0893 39.8017C33.7367 39.8003 34.384 39.6588 34.9727 39.3846C35.5767 39.1031 36.1173 38.684 36.5433 38.1677C36.9913 37.6238 37.31 36.972 37.4613 36.2819C37.5287 35.9753 37.5627 35.6628 37.5647 35.3471C37.5667 35.085 37.52 34.8229 37.422 34.581C37.2533 34.1668 36.938 33.8132 36.5427 33.5979C36.2673 33.4478 35.9567 33.3663 35.6427 33.3608C35.6307 33.3606 35.6187 33.3605 35.6073 33.3605H21.0201ZM55.254 35.8868H43.232C42.778 35.8776 42.3687 35.4972 42.3587 35.0137V22.9919C42.368 22.5377 42.7487 22.1285 43.232 22.1188H46.4327V21.7401C46.4327 21.7237 46.418 21.7085 46.4013 21.7083C46.19 21.7059 45.9787 21.7085 45.7673 21.7082C45.6127 21.7075 45.458 21.6443 45.3473 21.5351C45.236 21.4248 45.1707 21.2697 45.1693 21.1121V21.1102V20.4747C45.1707 20.2373 45.3207 20.0117 45.5427 19.9211C45.6133 19.8921 45.69 19.8771 45.7673 19.8767H48.67V19.4634C48.67 16.7414 48.6687 14.0194 48.67 11.2973C48.6707 9.95553 48.7687 8.61899 49.01 7.30933C49.1633 6.47826 49.374 5.65759 49.6687 4.86439C49.9753 4.03759 50.37 3.24046 50.9073 2.53446C51.3573 1.94306 51.9127 1.42 52.5687 1.07553C53.0653 0.814462 53.62 0.661595 54.1793 0.644462C54.2147 0.643395 54.2507 0.642862 54.286 0.642796L54.8593 0.642395V13.2111C54.8587 14.1713 54.6993 15.135 54.3533 16.0269C54.0667 16.7647 53.6507 17.4559 53.1 18.0234C52.724 18.4117 52.2853 18.7393 51.8007 18.9779C51.3753 19.1872 50.9133 19.3262 50.4467 19.3872L50.438 19.3883V19.8767H52.7187C52.9147 19.8776 53.1067 19.9801 53.216 20.144C53.28 20.2406 53.3153 20.356 53.3167 20.4729V20.4747V21.1102C53.316 21.2699 53.2473 21.4309 53.1307 21.5425C53.0207 21.6471 52.87 21.7075 52.7187 21.7082C52.5073 21.7085 52.296 21.7082 52.0853 21.7083C52.068 21.7083 52.0533 21.7228 52.0533 21.7401V22.1188H55.254C55.708 22.1279 56.1173 22.5084 56.1267 22.9919V35.0137C56.118 35.4678 55.7373 35.8769 55.254 35.8868ZM51.4847 21.8399C51.4847 21.8059 51.4847 21.7719 51.4847 21.7379C51.486 21.5028 51.634 21.2789 51.8513 21.1871C51.9247 21.1561 52.004 21.1402 52.0833 21.1398C52.294 21.1395 52.5053 21.1398 52.716 21.1398C52.7327 21.1398 52.748 21.1253 52.748 21.1087C52.7507 20.8981 52.748 20.6875 52.748 20.4769C52.748 20.4603 52.7333 20.4452 52.7167 20.4451H50.438H49.87V18.8559C50.398 18.8557 50.91 18.7499 51.382 18.5452C51.908 18.3174 52.3807 17.9666 52.768 17.5475C53.1833 17.098 53.51 16.5667 53.75 16.0016C54.1013 15.1749 54.2707 14.2731 54.2893 13.3768C54.29 13.3246 54.2907 13.2723 54.2907 13.2202V6.26373V1.21119C54.2893 1.21119 54.288 1.21119 54.2867 1.21119C53.7453 1.21226 53.2127 1.36266 52.74 1.6292C52.3047 1.8748 51.92 2.21439 51.596 2.58719C51.1467 3.10513 50.7947 3.69893 50.508 4.32226C50.0447 5.32599 49.7507 6.40073 49.5553 7.48726C49.3527 8.61726 49.2593 9.76366 49.2413 10.9127C49.2393 11.0472 49.238 11.1818 49.238 11.3163V18.895V20.4451H48.67H45.7693C45.7527 20.4451 45.738 20.4596 45.738 20.4764C45.7367 20.6869 45.738 20.8975 45.738 21.108C45.738 21.1244 45.752 21.1396 45.7687 21.1398C45.98 21.1422 46.1913 21.1395 46.4027 21.1398C46.5573 21.1405 46.712 21.2038 46.8227 21.313C46.934 21.4232 46.9993 21.5784 47.0007 21.736V21.7396V22.6872L43.2427 22.6871C43.0793 22.6881 42.9307 22.8302 42.9273 22.999V35.0105C42.932 35.1709 43.0727 35.3133 43.2353 35.3183H55.2507C55.41 35.3134 55.5533 35.1763 55.5587 35.0105V22.9951C55.5533 22.8347 55.4133 22.6923 55.2507 22.6873L51.4847 22.6872V21.8399ZM16.2162 32.0975H2.44553V29.6519L0 32.0975V22.1169L2.44553 24.5623V22.1169H4.0942C3.89794 21.9907 3.71387 21.8456 3.54573 21.6839C3.10333 21.2583 2.772 20.7181 2.5956 20.1291C2.38407 19.4226 2.39767 18.653 2.6324 17.9565C2.81927 17.4018 3.14567 16.8939 3.57293 16.4913C4.07513 16.0182 4.71667 15.6933 5.3966 15.5718C5.60373 15.5347 5.8146 15.5163 6.02453 15.5158C6.0284 15.5158 6.03227 15.5158 6.03607 15.5158C6.73453 15.5174 7.42993 15.7265 8.0122 16.1137C8.52587 16.4552 8.9502 16.9315 9.22973 17.4831C9.266 17.5547 9.2998 17.6274 9.33107 17.7012C9.44053 17.4434 9.58013 17.1984 9.7466 16.9731C10.1132 16.4768 10.6088 16.0765 11.1761 15.824C11.6309 15.6216 12.126 15.5169 12.6256 15.5158C12.6295 15.5158 12.6333 15.5158 12.6372 15.5158C13.1339 15.5169 13.6321 15.6217 14.0867 15.824C14.6415 16.0709 15.1319 16.4623 15.4969 16.9472C15.8927 17.4731 16.1405 18.1113 16.201 18.7687C16.26 19.4099 16.1454 20.0649 15.8645 20.6497C15.5783 21.2457 15.1249 21.7577 14.5679 22.1169H16.2162V32.0975ZM3.014 29.0834V31.5289H15.6477V22.6853H3.014V25.1309L4.2774 26.3943V27.8201L3.014 29.0834ZM2.44553 25.3663L0.568534 23.4893V30.7249L2.44553 28.8479V25.3663ZM24.237 26.9538C24.7844 26.955 25.3355 27.1008 25.8146 27.3763C26.3967 27.7111 26.8695 28.234 27.1415 28.8488C27.2822 29.1666 27.3694 29.5067 27.4007 29.8552L27.4261 30.1434L21.0823 30.6984L21.0573 30.4102C21.0128 29.8865 21.0985 29.3543 21.3065 28.8742C21.534 28.3491 21.9059 27.8872 22.3706 27.5524C22.7625 27.2702 23.2196 27.0796 23.6941 26.9992C23.8735 26.9687 24.0563 26.9537 24.237 26.9538ZM37.53 27.4851L37.5047 27.7733C37.4473 28.405 37.2067 28.9963 36.82 29.4794C36.4607 29.9278 35.9793 30.2764 35.44 30.4766C34.8053 30.7124 34.0953 30.7367 33.446 30.5491C32.98 30.4144 32.546 30.1705 32.188 29.8437C31.6993 29.3971 31.3527 28.7948 31.2167 28.1448C31.1527 27.8405 31.1347 27.5281 31.1613 27.2183L31.186 26.9301C33.3007 27.1151 35.4153 27.3001 37.53 27.4851ZM31.718 27.5473C31.7253 27.8995 31.8047 28.2485 31.9493 28.5681C32.1413 28.9913 32.4473 29.3611 32.826 29.6287C33.2913 29.9575 33.866 30.1268 34.4393 30.1043C34.9533 30.0842 35.4593 29.9074 35.8753 29.6032C36.2887 29.3013 36.6113 28.8764 36.7887 28.3933C36.836 28.2656 36.872 28.1345 36.8987 28.0005V28.0004L31.718 27.5472C31.718 27.5472 31.718 27.5472 31.718 27.5473ZM24.2279 27.5222C23.7851 27.5233 23.3447 27.6365 22.9599 27.8503C22.5027 28.1044 22.1249 28.4989 21.8899 28.9678C21.7222 29.3021 21.6281 29.6741 21.6154 30.0441C21.6149 30.0565 21.6146 30.0689 21.6144 30.0813V30.0813L26.7951 29.6281C26.7148 29.2197 26.5311 28.8241 26.2652 28.4953C25.898 28.0411 25.3776 27.713 24.7985 27.5842C24.614 27.5431 24.4249 27.5225 24.2363 27.5221C24.2335 27.5221 24.2307 27.5221 24.2279 27.5222ZM3.014 25.9349V28.2794L3.70887 27.5845V26.6297L3.014 25.9349ZM9.33067 20.4999C9.26714 20.6501 9.19327 20.796 9.1094 20.9363C8.8262 21.4102 8.4312 21.8167 7.96593 22.1169H10.6945C10.6855 22.1111 10.6765 22.1053 10.6675 22.0993C10.1243 21.7428 9.67947 21.2352 9.39827 20.6497C9.37453 20.6003 9.352 20.5503 9.33067 20.4999ZM12.6265 16.0843C12.2077 16.0853 11.7897 16.1732 11.4073 16.3434C10.9404 16.5512 10.5279 16.8801 10.2201 17.2891C9.88727 17.7313 9.68007 18.2645 9.6284 18.8161C9.57754 19.3585 9.67553 19.9138 9.91073 20.4037C10.2285 21.0653 10.7927 21.603 11.4747 21.8868C12.1085 22.1505 12.8373 22.1881 13.4969 21.9906C13.9533 21.8539 14.3774 21.6055 14.7218 21.2741C15.0951 20.915 15.3749 20.4585 15.5228 19.9616C15.7009 19.3633 15.6871 18.7093 15.4846 18.1205C15.3259 17.6589 15.0519 17.2367 14.6956 16.902C14.2735 16.5056 13.7355 16.2335 13.1651 16.1314C12.9907 16.1003 12.8134 16.0847 12.6363 16.0843C12.633 16.0843 12.6298 16.0843 12.6265 16.0843ZM6.0352 16.0843H6.02547C5.6066 16.0853 5.1886 16.1732 4.8062 16.3434C4.33933 16.5512 3.92687 16.8801 3.619 17.2891C3.2862 17.7313 3.079 18.2645 3.02727 18.8161C2.97647 19.3585 3.0744 19.9138 3.30967 20.4037C3.62747 21.0653 4.1916 21.603 4.87367 21.8868C5.5074 22.1505 6.2362 22.1881 6.8958 21.9906C7.3522 21.8539 7.77633 21.6055 8.12073 21.2741C8.49407 20.915 8.77373 20.4585 8.92173 19.9616C9.09987 19.3633 9.086 18.7093 8.88353 18.1205C8.7248 17.6589 8.45074 17.2367 8.09454 16.902C7.67247 16.5056 7.1344 16.2335 6.56393 16.1314C6.3896 16.1003 6.21233 16.0847 6.0352 16.0843Z" fill="url(#paint0_linear_1_15)"/>
<path fill-rule="evenodd" clip-rule="evenodd" d="M3.01349 22.6871H15.6448V25.2134H5.53974V29.0027H15.6448V31.529H5.53974V35.3184H3.01349V31.529V29.0027V25.2134V22.6871Z" fill="white"/>
<path fill-rule="evenodd" clip-rule="evenodd" d="M17.9195 22.6871H40.6558V31.529H38.1295V25.2134H30.5508V31.5289H28.0245V25.2134H20.4458V31.529H17.9195V22.6871Z" fill="white"/>
<path fill-rule="evenodd" clip-rule="evenodd" d="M42.9272 22.6871H55.5585V25.2134H45.4535V29.0027H55.5585V31.529H45.4535V35.3184H42.9272V31.529V29.0027V25.2134V22.6871Z" fill="white"/>
<path fill-rule="evenodd" clip-rule="evenodd" d="M80 25.2134H69.895V31.5289H67.3687V25.2134H59.79H57.2637V22.6871H80V25.2134Z" fill="white"/>
<defs>
<linearGradient id="paint0_linear_1_15" x1="0" y1="22.0533" x2="88.0367" y2="22.0533" gradientUnits="userSpaceOnUse">
<stop stop-color="#FD2538"/>
<stop offset="0.43" stop-color="#FE5B27"/>
<stop offset="1" stop-color="#FFD400"/>
</linearGradient>
</defs>
</svg>
