<?xml version="1.0" encoding="UTF-8"?>
<svg width="72px" height="56px" viewBox="0 0 72 56" version="1.1" xmlns="http://www.w3.org/2000/svg" xmlns:xlink="http://www.w3.org/1999/xlink">
    <!-- Generator: Sketch 44.1 (41455) - http://www.bohemiancoding.com/sketch -->
    <title>mastercard</title>
    <desc>Created with Sketch.</desc>
    <defs></defs>
    <g id="Figurehead" stroke="none" stroke-width="1" fill="none" fill-rule="evenodd">
        <g id="card-schemes" transform="translate(-94.000000, -152.000000)">
            <g id="mastercard" transform="translate(75.000000, 145.000000)">
                <rect id="Rectangle-26-Copy" fill-opacity="0" fill="#FFFFFF" x="0" y="0" width="110" height="70"></rect>
                <g id="Group" transform="translate(19.000000, 7.000000)" fill-rule="nonzero">
                    <path d="M13.3627119,55.4521739 L13.3627119,51.8 C13.3627119,50.4 12.5084746,49.4869565 11.0440678,49.4869565 C10.3118644,49.4869565 9.51864407,49.7304348 8.96949153,50.5217391 C8.54237288,49.8521739 7.93220339,49.4869565 7.01694915,49.4869565 C6.40677966,49.4869565 5.79661017,49.6695652 5.30847458,50.3391304 L5.30847458,49.6086957 L4.02711864,49.6086957 L4.02711864,55.4521739 L5.30847458,55.4521739 L5.30847458,52.226087 C5.30847458,51.1913043 5.85762712,50.7043478 6.71186441,50.7043478 C7.56610169,50.7043478 7.99322034,51.2521739 7.99322034,52.226087 L7.99322034,55.4521739 L9.27457627,55.4521739 L9.27457627,52.226087 C9.27457627,51.1913043 9.88474576,50.7043478 10.6779661,50.7043478 C11.5322034,50.7043478 11.959322,51.2521739 11.959322,52.226087 L11.959322,55.4521739 L13.3627119,55.4521739 Z M32.3389831,49.6086957 L30.2644068,49.6086957 L30.2644068,47.8434783 L28.9830508,47.8434783 L28.9830508,49.6086957 L27.8237288,49.6086957 L27.8237288,50.7652174 L28.9830508,50.7652174 L28.9830508,53.4434783 C28.9830508,54.7826087 29.5322034,55.573913 30.9966102,55.573913 C31.5457627,55.573913 32.1559322,55.3913043 32.5830508,55.1478261 L32.2169492,54.0521739 C31.8508475,54.2956522 31.4237288,54.3565217 31.1186441,54.3565217 C30.5084746,54.3565217 30.2644068,53.9913043 30.2644068,53.3826087 L30.2644068,50.7652174 L32.3389831,50.7652174 L32.3389831,49.6086957 Z M43.2,49.4869565 C42.4677966,49.4869565 41.979661,49.8521739 41.6745763,50.3391304 L41.6745763,49.6086957 L40.3932203,49.6086957 L40.3932203,55.4521739 L41.6745763,55.4521739 L41.6745763,52.1652174 C41.6745763,51.1913043 42.1016949,50.6434783 42.8949153,50.6434783 C43.1389831,50.6434783 43.4440678,50.7043478 43.6881356,50.7652174 L44.0542373,49.5478261 C43.8101695,49.4869565 43.4440678,49.4869565 43.2,49.4869565 L43.2,49.4869565 Z M26.7864407,50.0956522 C26.1762712,49.6695652 25.3220339,49.4869565 24.4067797,49.4869565 C22.9423729,49.4869565 21.9661017,50.2173913 21.9661017,51.373913 C21.9661017,52.3478261 22.6983051,52.8956522 23.979661,53.0782609 L24.5898305,53.1391304 C25.2610169,53.2608696 25.6271186,53.4434783 25.6271186,53.7478261 C25.6271186,54.173913 25.1389831,54.4782609 24.2847458,54.4782609 C23.4305085,54.4782609 22.759322,54.173913 22.3322034,53.8695652 L21.7220339,54.8434783 C22.3932203,55.3304348 23.3084746,55.573913 24.2237288,55.573913 C25.9322034,55.573913 26.9084746,54.7826087 26.9084746,53.6869565 C26.9084746,52.6521739 26.1152542,52.1043478 24.8949153,51.9217391 L24.2847458,51.8608696 C23.7355932,51.8 23.3084746,51.6782609 23.3084746,51.3130435 C23.3084746,50.8869565 23.7355932,50.6434783 24.4067797,50.6434783 C25.1389831,50.6434783 25.8711864,50.9478261 26.2372881,51.1304348 L26.7864407,50.0956522 Z M60.8338983,49.4869565 C60.1016949,49.4869565 59.6135593,49.8521739 59.3084746,50.3391304 L59.3084746,49.6086957 L58.0271186,49.6086957 L58.0271186,55.4521739 L59.3084746,55.4521739 L59.3084746,52.1652174 C59.3084746,51.1913043 59.7355932,50.6434783 60.5288136,50.6434783 C60.7728814,50.6434783 61.0779661,50.7043478 61.3220339,50.7652174 L61.6881356,49.5478261 C61.4440678,49.4869565 61.0779661,49.4869565 60.8338983,49.4869565 L60.8338983,49.4869565 Z M44.4813559,52.5304348 C44.4813559,54.2956522 45.7016949,55.573913 47.5932203,55.573913 C48.4474576,55.573913 49.0576271,55.3913043 49.6677966,54.9043478 L49.0576271,53.8695652 C48.5694915,54.2347826 48.0813559,54.4173913 47.5322034,54.4173913 C46.4949153,54.4173913 45.7627119,53.6869565 45.7627119,52.5304348 C45.7627119,51.4347826 46.4949153,50.7043478 47.5322034,50.6434783 C48.0813559,50.6434783 48.5694915,50.826087 49.0576271,51.1913043 L49.6677966,50.1565217 C49.0576271,49.6695652 48.4474576,49.4869565 47.5932203,49.4869565 C45.7016949,49.4869565 44.4813559,50.7652174 44.4813559,52.5304348 L44.4813559,52.5304348 Z M56.3186441,52.5304348 L56.3186441,49.6086957 L55.0372881,49.6086957 L55.0372881,50.3391304 C54.6101695,49.7913043 54,49.4869565 53.2067797,49.4869565 C51.559322,49.4869565 50.2779661,50.7652174 50.2779661,52.5304348 C50.2779661,54.2956522 51.559322,55.573913 53.2067797,55.573913 C54.0610169,55.573913 54.6711864,55.2695652 55.0372881,54.7217391 L55.0372881,55.4521739 L56.3186441,55.4521739 L56.3186441,52.5304348 Z M51.620339,52.5304348 C51.620339,51.4956522 52.2915254,50.6434783 53.3898305,50.6434783 C54.4271186,50.6434783 55.159322,51.4347826 55.159322,52.5304348 C55.159322,53.5652174 54.4271186,54.4173913 53.3898305,54.4173913 C52.2915254,54.3565217 51.620339,53.5652174 51.620339,52.5304348 L51.620339,52.5304348 Z M36.3050847,49.4869565 C34.5966102,49.4869565 33.3762712,50.7043478 33.3762712,52.5304348 C33.3762712,54.3565217 34.5966102,55.573913 36.3661017,55.573913 C37.220339,55.573913 38.0745763,55.3304348 38.7457627,54.7826087 L38.1355932,53.8695652 C37.6474576,54.2347826 37.0372881,54.4782609 36.4271186,54.4782609 C35.6338983,54.4782609 34.840678,54.1130435 34.6576271,53.0782609 L38.9898305,53.0782609 C38.9898305,52.8956522 38.9898305,52.773913 38.9898305,52.5913043 C39.0508475,50.7043478 37.9525424,49.4869565 36.3050847,49.4869565 L36.3050847,49.4869565 Z M36.3050847,50.5826087 C37.0983051,50.5826087 37.6474576,51.0695652 37.7694915,51.9826087 L34.7186441,51.9826087 C34.840678,51.1913043 35.3898305,50.5826087 36.3050847,50.5826087 L36.3050847,50.5826087 Z M68.0949153,52.5304348 L68.0949153,47.2956522 L66.8135593,47.2956522 L66.8135593,50.3391304 C66.3864407,49.7913043 65.7762712,49.4869565 64.9830508,49.4869565 C63.3355932,49.4869565 62.0542373,50.7652174 62.0542373,52.5304348 C62.0542373,54.2956522 63.3355932,55.573913 64.9830508,55.573913 C65.8372881,55.573913 66.4474576,55.2695652 66.8135593,54.7217391 L66.8135593,55.4521739 L68.0949153,55.4521739 L68.0949153,52.5304348 Z M63.3966102,52.5304348 C63.3966102,51.4956522 64.0677966,50.6434783 65.1661017,50.6434783 C66.2033898,50.6434783 66.9355932,51.4347826 66.9355932,52.5304348 C66.9355932,53.5652174 66.2033898,54.4173913 65.1661017,54.4173913 C64.0677966,54.3565217 63.3966102,53.5652174 63.3966102,52.5304348 L63.3966102,52.5304348 Z M20.5627119,52.5304348 L20.5627119,49.6086957 L19.2813559,49.6086957 L19.2813559,50.3391304 C18.8542373,49.7913043 18.2440678,49.4869565 17.4508475,49.4869565 C15.8033898,49.4869565 14.5220339,50.7652174 14.5220339,52.5304348 C14.5220339,54.2956522 15.8033898,55.573913 17.4508475,55.573913 C18.3050847,55.573913 18.9152542,55.2695652 19.2813559,54.7217391 L19.2813559,55.4521739 L20.5627119,55.4521739 L20.5627119,52.5304348 Z M15.8033898,52.5304348 C15.8033898,51.4956522 16.4745763,50.6434783 17.5728814,50.6434783 C18.6101695,50.6434783 19.3423729,51.4347826 19.3423729,52.5304348 C19.3423729,53.5652174 18.6101695,54.4173913 17.5728814,54.4173913 C16.4745763,54.3565217 15.8033898,53.5652174 15.8033898,52.5304348 Z" id="XMLID_1775_" fill="#000000"></path>
                    <g id="XMLID_328_">
                        <rect id="Rectangle-path" fill="#FF5F00" x="26.359322" y="5.23478261" width="19.220339" height="34.4521739"></rect>
                        <path d="M27.579661,22.4608696 C27.579661,15.4608696 30.8745763,9.25217391 35.9389831,5.23478261 C32.2169492,2.31304348 27.5186441,0.547826087 22.3932203,0.547826087 C10.2508475,0.547826087 0.427118644,10.3478261 0.427118644,22.4608696 C0.427118644,34.573913 10.2508475,44.373913 22.3932203,44.373913 C27.5186441,44.373913 32.2169492,42.6086957 35.9389831,39.6869565 C30.8745763,35.7304348 27.579661,29.4608696 27.579661,22.4608696 Z" id="XMLID_330_" fill="#EB001B"></path>
                        <path d="M71.5118644,22.4608696 C71.5118644,34.573913 61.6881356,44.373913 49.5457627,44.373913 C44.420339,44.373913 39.7220339,42.6086957 36,39.6869565 C41.1254237,35.6695652 44.359322,29.4608696 44.359322,22.4608696 C44.359322,15.4608696 41.0644068,9.25217391 36,5.23478261 C39.7220339,2.31304348 44.420339,0.547826087 49.5457627,0.547826087 C61.6881356,0.547826087 71.5118644,10.4086957 71.5118644,22.4608696 Z" id="Shape" fill="#F79E1B"></path>
                    </g>
                </g>
            </g>
        </g>
    </g>
</svg>